<mxfile>
    <diagram id="LNP9S4-BVpzVc-00VTwb" name="Page-1">
        <mxGraphModel dx="718" dy="1703" grid="1" gridSize="10" guides="1" tooltips="1" connect="1" arrows="1" fold="1" page="1" pageScale="1" pageWidth="850" pageHeight="1100" math="0" shadow="0">
            <root>
                <mxCell id="0"/>
                <mxCell id="1" parent="0"/>
                <mxCell id="0Kgk2NvX1qrmI3Vkb6VV-116" style="edgeStyle=orthogonalEdgeStyle;rounded=0;orthogonalLoop=1;jettySize=auto;html=1;exitX=0.5;exitY=1;exitDx=0;exitDy=0;entryX=0.5;entryY=0;entryDx=0;entryDy=0;" edge="1" parent="1" source="0Kgk2NvX1qrmI3Vkb6VV-86" target="0Kgk2NvX1qrmI3Vkb6VV-87">
                    <mxGeometry relative="1" as="geometry"/>
                </mxCell>
                <mxCell id="0Kgk2NvX1qrmI3Vkb6VV-86" value="Browser" style="rounded=0;whiteSpace=wrap;html=1;shadow=0;sketch=0;fillColor=#f5f5f5;strokeColor=#666666;fontColor=#333333;" vertex="1" parent="1">
                    <mxGeometry x="160" y="80" width="120" height="40" as="geometry"/>
                </mxCell>
                <mxCell id="0Kgk2NvX1qrmI3Vkb6VV-88" style="edgeStyle=orthogonalEdgeStyle;rounded=0;orthogonalLoop=1;jettySize=auto;html=1;exitX=0.5;exitY=0;exitDx=0;exitDy=0;" edge="1" parent="1" source="0Kgk2NvX1qrmI3Vkb6VV-87" target="0Kgk2NvX1qrmI3Vkb6VV-86">
                    <mxGeometry relative="1" as="geometry"/>
                </mxCell>
                <mxCell id="0Kgk2NvX1qrmI3Vkb6VV-93" value="HTTP" style="edgeLabel;html=1;align=center;verticalAlign=middle;resizable=0;points=[];labelBackgroundColor=none;fontColor=#000000;" vertex="1" connectable="0" parent="0Kgk2NvX1qrmI3Vkb6VV-88">
                    <mxGeometry x="-0.2" y="1" relative="1" as="geometry">
                        <mxPoint as="offset"/>
                    </mxGeometry>
                </mxCell>
                <mxCell id="0Kgk2NvX1qrmI3Vkb6VV-87" value="Server" style="rounded=0;whiteSpace=wrap;html=1;shadow=0;sketch=0;fillColor=#f5f5f5;strokeColor=#666666;fontColor=#333333;" vertex="1" parent="1">
                    <mxGeometry x="160" y="160" width="120" height="40" as="geometry"/>
                </mxCell>
                <mxCell id="0Kgk2NvX1qrmI3Vkb6VV-90" value="HTML" style="html=1;whiteSpace=wrap;shape=isoCube2;backgroundOutline=1;isoAngle=15;shadow=0;sketch=0;fillColor=#f5f5f5;strokeColor=#666666;fontColor=#333333;" vertex="1" parent="1">
                    <mxGeometry x="290" y="70" width="40" height="50" as="geometry"/>
                </mxCell>
                <mxCell id="0Kgk2NvX1qrmI3Vkb6VV-94" value="1994 ~ 1996" style="shape=ext;double=1;rounded=0;whiteSpace=wrap;html=1;shadow=0;sketch=0;fillColor=#f5f5f5;strokeColor=#666666;fontColor=#333333;" vertex="1" parent="1">
                    <mxGeometry x="160" width="320" height="30" as="geometry"/>
                </mxCell>
                <mxCell id="0Kgk2NvX1qrmI3Vkb6VV-95" value="PHP" style="html=1;whiteSpace=wrap;shape=isoCube2;backgroundOutline=1;isoAngle=15;shadow=0;sketch=0;fillColor=#f5f5f5;strokeColor=#666666;fontColor=#333333;" vertex="1" parent="1">
                    <mxGeometry x="290" y="155" width="40" height="50" as="geometry"/>
                </mxCell>
                <mxCell id="0Kgk2NvX1qrmI3Vkb6VV-96" value="CSS" style="html=1;whiteSpace=wrap;shape=isoCube2;backgroundOutline=1;isoAngle=15;shadow=0;sketch=0;fillColor=#f5f5f5;strokeColor=#666666;fontColor=#333333;" vertex="1" parent="1">
                    <mxGeometry x="340" y="70" width="40" height="50" as="geometry"/>
                </mxCell>
                <mxCell id="0Kgk2NvX1qrmI3Vkb6VV-97" value="JS" style="html=1;whiteSpace=wrap;shape=isoCube2;backgroundOutline=1;isoAngle=15;shadow=0;sketch=0;fillColor=#f5f5f5;strokeColor=#666666;fontColor=#333333;" vertex="1" parent="1">
                    <mxGeometry x="390" y="70" width="40" height="50" as="geometry"/>
                </mxCell>
                <mxCell id="0Kgk2NvX1qrmI3Vkb6VV-99" value="ASP" style="html=1;whiteSpace=wrap;shape=isoCube2;backgroundOutline=1;isoAngle=15;shadow=0;sketch=0;fillColor=#f5f5f5;strokeColor=#666666;fontColor=#333333;" vertex="1" parent="1">
                    <mxGeometry x="340" y="155" width="40" height="50" as="geometry"/>
                </mxCell>
                <mxCell id="0Kgk2NvX1qrmI3Vkb6VV-100" value="JSP" style="html=1;whiteSpace=wrap;shape=isoCube2;backgroundOutline=1;isoAngle=15;shadow=0;sketch=0;fillColor=#f5f5f5;strokeColor=#666666;fontColor=#333333;" vertex="1" parent="1">
                    <mxGeometry x="390" y="155" width="40" height="50" as="geometry"/>
                </mxCell>
                <UserObject label="http://www.developer-cheatsheets.com/history.html" link="http://www.developer-cheatsheets.com/history.html" id="0Kgk2NvX1qrmI3Vkb6VV-102">
                    <mxCell style="text;html=1;whiteSpace=wrap;align=left;verticalAlign=middle;fontStyle=4;shadow=0;sketch=0;" vertex="1" parent="1">
                        <mxGeometry x="185" y="-50" width="290" height="40" as="geometry"/>
                    </mxCell>
                </UserObject>
                <mxCell id="0Kgk2NvX1qrmI3Vkb6VV-117" style="edgeStyle=orthogonalEdgeStyle;rounded=0;orthogonalLoop=1;jettySize=auto;html=1;" edge="1" parent="1" source="0Kgk2NvX1qrmI3Vkb6VV-103" target="0Kgk2NvX1qrmI3Vkb6VV-106">
                    <mxGeometry relative="1" as="geometry"/>
                </mxCell>
                <mxCell id="0Kgk2NvX1qrmI3Vkb6VV-103" value="Browser" style="rounded=0;whiteSpace=wrap;html=1;shadow=0;sketch=0;fillColor=#f5f5f5;strokeColor=#666666;fontColor=#333333;" vertex="1" parent="1">
                    <mxGeometry x="160" y="400" width="120" height="40" as="geometry"/>
                </mxCell>
                <mxCell id="0Kgk2NvX1qrmI3Vkb6VV-104" style="edgeStyle=orthogonalEdgeStyle;rounded=0;orthogonalLoop=1;jettySize=auto;html=1;exitX=0.5;exitY=0;exitDx=0;exitDy=0;" edge="1" parent="1" source="0Kgk2NvX1qrmI3Vkb6VV-106" target="0Kgk2NvX1qrmI3Vkb6VV-103">
                    <mxGeometry relative="1" as="geometry"/>
                </mxCell>
                <mxCell id="0Kgk2NvX1qrmI3Vkb6VV-105" value="HTTP" style="edgeLabel;html=1;align=center;verticalAlign=middle;resizable=0;points=[];labelBackgroundColor=none;fontColor=#000000;" vertex="1" connectable="0" parent="0Kgk2NvX1qrmI3Vkb6VV-104">
                    <mxGeometry x="-0.2" y="1" relative="1" as="geometry">
                        <mxPoint as="offset"/>
                    </mxGeometry>
                </mxCell>
                <mxCell id="0Kgk2NvX1qrmI3Vkb6VV-106" value="Server" style="rounded=0;whiteSpace=wrap;html=1;shadow=0;sketch=0;fillColor=#f5f5f5;strokeColor=#666666;fontColor=#333333;" vertex="1" parent="1">
                    <mxGeometry x="160" y="480" width="120" height="40" as="geometry"/>
                </mxCell>
                <mxCell id="0Kgk2NvX1qrmI3Vkb6VV-107" value="HTML" style="html=1;whiteSpace=wrap;shape=isoCube2;backgroundOutline=1;isoAngle=15;shadow=0;sketch=0;fillColor=#f5f5f5;strokeColor=#666666;fontColor=#333333;" vertex="1" parent="1">
                    <mxGeometry x="290" y="390" width="40" height="50" as="geometry"/>
                </mxCell>
                <mxCell id="0Kgk2NvX1qrmI3Vkb6VV-108" value="2002" style="shape=ext;double=1;rounded=0;whiteSpace=wrap;html=1;shadow=0;sketch=0;fillColor=#f5f5f5;strokeColor=#666666;fontColor=#333333;" vertex="1" parent="1">
                    <mxGeometry x="160" y="320" width="320" height="30" as="geometry"/>
                </mxCell>
                <mxCell id="0Kgk2NvX1qrmI3Vkb6VV-109" value="PHP" style="html=1;whiteSpace=wrap;shape=isoCube2;backgroundOutline=1;isoAngle=15;shadow=0;sketch=0;fillColor=#f5f5f5;strokeColor=#666666;fontColor=#333333;" vertex="1" parent="1">
                    <mxGeometry x="290" y="475" width="40" height="50" as="geometry"/>
                </mxCell>
                <mxCell id="0Kgk2NvX1qrmI3Vkb6VV-110" value="CSS" style="html=1;whiteSpace=wrap;shape=isoCube2;backgroundOutline=1;isoAngle=15;shadow=0;sketch=0;fillColor=#f5f5f5;strokeColor=#666666;fontColor=#333333;" vertex="1" parent="1">
                    <mxGeometry x="340" y="390" width="40" height="50" as="geometry"/>
                </mxCell>
                <mxCell id="0Kgk2NvX1qrmI3Vkb6VV-111" value="JS" style="html=1;whiteSpace=wrap;shape=isoCube2;backgroundOutline=1;isoAngle=15;shadow=0;sketch=0;fillColor=#f5f5f5;strokeColor=#666666;fontColor=#333333;" vertex="1" parent="1">
                    <mxGeometry x="390" y="390" width="40" height="50" as="geometry"/>
                </mxCell>
                <mxCell id="0Kgk2NvX1qrmI3Vkb6VV-113" value="ASP" style="html=1;whiteSpace=wrap;shape=isoCube2;backgroundOutline=1;isoAngle=15;shadow=0;sketch=0;fillColor=#f5f5f5;strokeColor=#666666;fontColor=#333333;" vertex="1" parent="1">
                    <mxGeometry x="340" y="475" width="40" height="50" as="geometry"/>
                </mxCell>
                <mxCell id="0Kgk2NvX1qrmI3Vkb6VV-114" value="JSP" style="html=1;whiteSpace=wrap;shape=isoCube2;backgroundOutline=1;isoAngle=15;shadow=0;sketch=0;fillColor=#f5f5f5;strokeColor=#666666;fontColor=#333333;" vertex="1" parent="1">
                    <mxGeometry x="390" y="475" width="40" height="50" as="geometry"/>
                </mxCell>
                <mxCell id="0Kgk2NvX1qrmI3Vkb6VV-118" value="SOAP" style="ellipse;shape=cloud;whiteSpace=wrap;html=1;shadow=0;sketch=0;fillColor=#f5f5f5;align=center;strokeColor=#666666;fontColor=#333333;" vertex="1" parent="1">
                    <mxGeometry x="240" y="440" width="60" height="40" as="geometry"/>
                </mxCell>
                <mxCell id="0Kgk2NvX1qrmI3Vkb6VV-119" value="REST" style="ellipse;shape=cloud;whiteSpace=wrap;html=1;shadow=0;sketch=0;fillColor=#f5f5f5;align=center;strokeColor=#666666;fontColor=#333333;" vertex="1" parent="1">
                    <mxGeometry x="140" y="440" width="60" height="40" as="geometry"/>
                </mxCell>
                <mxCell id="0Kgk2NvX1qrmI3Vkb6VV-120" style="edgeStyle=orthogonalEdgeStyle;rounded=0;orthogonalLoop=1;jettySize=auto;html=1;" edge="1" parent="1" source="0Kgk2NvX1qrmI3Vkb6VV-121" target="0Kgk2NvX1qrmI3Vkb6VV-124">
                    <mxGeometry relative="1" as="geometry"/>
                </mxCell>
                <mxCell id="0Kgk2NvX1qrmI3Vkb6VV-121" value="Browser" style="rounded=0;whiteSpace=wrap;html=1;shadow=0;sketch=0;fillColor=#f5f5f5;strokeColor=#666666;fontColor=#333333;" vertex="1" parent="1">
                    <mxGeometry x="160" y="880" width="120" height="40" as="geometry"/>
                </mxCell>
                <mxCell id="0Kgk2NvX1qrmI3Vkb6VV-122" style="edgeStyle=orthogonalEdgeStyle;rounded=0;orthogonalLoop=1;jettySize=auto;html=1;exitX=0.5;exitY=0;exitDx=0;exitDy=0;" edge="1" parent="1" source="0Kgk2NvX1qrmI3Vkb6VV-124" target="0Kgk2NvX1qrmI3Vkb6VV-121">
                    <mxGeometry relative="1" as="geometry"/>
                </mxCell>
                <mxCell id="0Kgk2NvX1qrmI3Vkb6VV-123" value="HTTP" style="edgeLabel;html=1;align=center;verticalAlign=middle;resizable=0;points=[];labelBackgroundColor=none;fontColor=#000000;" vertex="1" connectable="0" parent="0Kgk2NvX1qrmI3Vkb6VV-122">
                    <mxGeometry x="-0.2" y="1" relative="1" as="geometry">
                        <mxPoint as="offset"/>
                    </mxGeometry>
                </mxCell>
                <mxCell id="0Kgk2NvX1qrmI3Vkb6VV-124" value="Server" style="rounded=0;whiteSpace=wrap;html=1;shadow=0;sketch=0;fillColor=#f5f5f5;strokeColor=#666666;fontColor=#333333;" vertex="1" parent="1">
                    <mxGeometry x="160" y="960" width="120" height="40" as="geometry"/>
                </mxCell>
                <mxCell id="0Kgk2NvX1qrmI3Vkb6VV-125" value="HTML" style="html=1;whiteSpace=wrap;shape=isoCube2;backgroundOutline=1;isoAngle=15;shadow=0;sketch=0;fillColor=#f5f5f5;strokeColor=#666666;fontColor=#333333;" vertex="1" parent="1">
                    <mxGeometry x="290" y="870" width="40" height="50" as="geometry"/>
                </mxCell>
                <mxCell id="0Kgk2NvX1qrmI3Vkb6VV-126" value="2006" style="shape=ext;double=1;rounded=0;whiteSpace=wrap;html=1;shadow=0;sketch=0;fillColor=#f5f5f5;strokeColor=#666666;fontColor=#333333;" vertex="1" parent="1">
                    <mxGeometry x="160" y="800" width="320" height="30" as="geometry"/>
                </mxCell>
                <mxCell id="0Kgk2NvX1qrmI3Vkb6VV-127" value="PHP" style="html=1;whiteSpace=wrap;shape=isoCube2;backgroundOutline=1;isoAngle=15;shadow=0;sketch=0;fillColor=#f5f5f5;strokeColor=#666666;fontColor=#333333;" vertex="1" parent="1">
                    <mxGeometry x="290" y="955" width="40" height="50" as="geometry"/>
                </mxCell>
                <mxCell id="0Kgk2NvX1qrmI3Vkb6VV-128" value="CSS" style="html=1;whiteSpace=wrap;shape=isoCube2;backgroundOutline=1;isoAngle=15;shadow=0;sketch=0;fillColor=#f5f5f5;strokeColor=#666666;fontColor=#333333;" vertex="1" parent="1">
                    <mxGeometry x="340" y="870" width="40" height="50" as="geometry"/>
                </mxCell>
                <mxCell id="0Kgk2NvX1qrmI3Vkb6VV-129" value="JS" style="html=1;whiteSpace=wrap;shape=isoCube2;backgroundOutline=1;isoAngle=15;shadow=0;sketch=0;fillColor=#f5f5f5;strokeColor=#666666;fontColor=#333333;" vertex="1" parent="1">
                    <mxGeometry x="390" y="870" width="40" height="50" as="geometry"/>
                </mxCell>
                <mxCell id="0Kgk2NvX1qrmI3Vkb6VV-131" value="ASP" style="html=1;whiteSpace=wrap;shape=isoCube2;backgroundOutline=1;isoAngle=15;shadow=0;sketch=0;fillColor=#f5f5f5;strokeColor=#666666;fontColor=#333333;" vertex="1" parent="1">
                    <mxGeometry x="340" y="955" width="40" height="50" as="geometry"/>
                </mxCell>
                <mxCell id="0Kgk2NvX1qrmI3Vkb6VV-132" value="JSP" style="html=1;whiteSpace=wrap;shape=isoCube2;backgroundOutline=1;isoAngle=15;shadow=0;sketch=0;fillColor=#f5f5f5;strokeColor=#666666;fontColor=#333333;" vertex="1" parent="1">
                    <mxGeometry x="390" y="955" width="40" height="50" as="geometry"/>
                </mxCell>
                <mxCell id="0Kgk2NvX1qrmI3Vkb6VV-134" value="REST" style="ellipse;shape=cloud;whiteSpace=wrap;html=1;shadow=0;sketch=0;fillColor=#f5f5f5;align=center;strokeColor=#666666;fontColor=#333333;" vertex="1" parent="1">
                    <mxGeometry x="140" y="920" width="60" height="40" as="geometry"/>
                </mxCell>
                <mxCell id="0Kgk2NvX1qrmI3Vkb6VV-139" style="edgeStyle=orthogonalEdgeStyle;rounded=0;orthogonalLoop=1;jettySize=auto;html=1;" edge="1" parent="1" source="0Kgk2NvX1qrmI3Vkb6VV-140" target="0Kgk2NvX1qrmI3Vkb6VV-143">
                    <mxGeometry relative="1" as="geometry"/>
                </mxCell>
                <mxCell id="0Kgk2NvX1qrmI3Vkb6VV-140" value="Browser" style="rounded=0;whiteSpace=wrap;html=1;shadow=0;sketch=0;fillColor=#f5f5f5;strokeColor=#666666;fontColor=#333333;" vertex="1" parent="1">
                    <mxGeometry x="160" y="1130" width="120" height="40" as="geometry"/>
                </mxCell>
                <mxCell id="0Kgk2NvX1qrmI3Vkb6VV-141" style="edgeStyle=orthogonalEdgeStyle;rounded=0;orthogonalLoop=1;jettySize=auto;html=1;exitX=0.5;exitY=0;exitDx=0;exitDy=0;" edge="1" parent="1" source="0Kgk2NvX1qrmI3Vkb6VV-143" target="0Kgk2NvX1qrmI3Vkb6VV-140">
                    <mxGeometry relative="1" as="geometry"/>
                </mxCell>
                <mxCell id="0Kgk2NvX1qrmI3Vkb6VV-142" value="HTTP" style="edgeLabel;html=1;align=center;verticalAlign=middle;resizable=0;points=[];labelBackgroundColor=none;fontColor=#000000;" vertex="1" connectable="0" parent="0Kgk2NvX1qrmI3Vkb6VV-141">
                    <mxGeometry x="-0.2" y="1" relative="1" as="geometry">
                        <mxPoint as="offset"/>
                    </mxGeometry>
                </mxCell>
                <mxCell id="0Kgk2NvX1qrmI3Vkb6VV-143" value="Server" style="rounded=0;whiteSpace=wrap;html=1;shadow=0;sketch=0;fillColor=#f5f5f5;strokeColor=#666666;fontColor=#333333;" vertex="1" parent="1">
                    <mxGeometry x="160" y="1210" width="120" height="40" as="geometry"/>
                </mxCell>
                <mxCell id="0Kgk2NvX1qrmI3Vkb6VV-144" value="HTML" style="html=1;whiteSpace=wrap;shape=isoCube2;backgroundOutline=1;isoAngle=15;shadow=0;sketch=0;fillColor=#f5f5f5;strokeColor=#666666;fontColor=#333333;" vertex="1" parent="1">
                    <mxGeometry x="290" y="1120" width="40" height="50" as="geometry"/>
                </mxCell>
                <mxCell id="0Kgk2NvX1qrmI3Vkb6VV-145" value="2009" style="shape=ext;double=1;rounded=0;whiteSpace=wrap;html=1;shadow=0;sketch=0;fillColor=#f5f5f5;strokeColor=#666666;fontColor=#333333;" vertex="1" parent="1">
                    <mxGeometry x="160" y="1050" width="320" height="30" as="geometry"/>
                </mxCell>
                <mxCell id="0Kgk2NvX1qrmI3Vkb6VV-146" value="PHP" style="html=1;whiteSpace=wrap;shape=isoCube2;backgroundOutline=1;isoAngle=15;shadow=0;sketch=0;fillColor=#f5f5f5;strokeColor=#666666;fontColor=#333333;" vertex="1" parent="1">
                    <mxGeometry x="290" y="1205" width="40" height="50" as="geometry"/>
                </mxCell>
                <mxCell id="0Kgk2NvX1qrmI3Vkb6VV-147" value="CSS" style="html=1;whiteSpace=wrap;shape=isoCube2;backgroundOutline=1;isoAngle=15;shadow=0;sketch=0;fillColor=#f5f5f5;strokeColor=#666666;fontColor=#333333;" vertex="1" parent="1">
                    <mxGeometry x="340" y="1120" width="40" height="50" as="geometry"/>
                </mxCell>
                <mxCell id="0Kgk2NvX1qrmI3Vkb6VV-148" value="JS" style="html=1;whiteSpace=wrap;shape=isoCube2;backgroundOutline=1;isoAngle=15;shadow=0;sketch=0;fillColor=#f5f5f5;strokeColor=#666666;fontColor=#333333;" vertex="1" parent="1">
                    <mxGeometry x="390" y="1120" width="40" height="50" as="geometry"/>
                </mxCell>
                <mxCell id="0Kgk2NvX1qrmI3Vkb6VV-150" value="ASP" style="html=1;whiteSpace=wrap;shape=isoCube2;backgroundOutline=1;isoAngle=15;shadow=0;sketch=0;fillColor=#f5f5f5;strokeColor=#666666;fontColor=#333333;" vertex="1" parent="1">
                    <mxGeometry x="340" y="1205" width="40" height="50" as="geometry"/>
                </mxCell>
                <mxCell id="0Kgk2NvX1qrmI3Vkb6VV-151" value="JSP" style="html=1;whiteSpace=wrap;shape=isoCube2;backgroundOutline=1;isoAngle=15;shadow=0;sketch=0;fillColor=#f5f5f5;strokeColor=#666666;fontColor=#333333;" vertex="1" parent="1">
                    <mxGeometry x="390" y="1205" width="40" height="50" as="geometry"/>
                </mxCell>
                <mxCell id="0Kgk2NvX1qrmI3Vkb6VV-152" value="REST" style="ellipse;shape=cloud;whiteSpace=wrap;html=1;shadow=0;sketch=0;fillColor=#f5f5f5;align=center;strokeColor=#666666;fontColor=#333333;" vertex="1" parent="1">
                    <mxGeometry x="135" y="1170" width="60" height="40" as="geometry"/>
                </mxCell>
                <mxCell id="0Kgk2NvX1qrmI3Vkb6VV-155" value="Node.js" style="html=1;whiteSpace=wrap;shape=isoCube2;backgroundOutline=1;isoAngle=15;shadow=0;sketch=0;fillColor=#f5f5f5;strokeColor=#666666;fontColor=#333333;" vertex="1" parent="1">
                    <mxGeometry x="440" y="1205" width="40" height="50" as="geometry"/>
                </mxCell>
                <mxCell id="0Kgk2NvX1qrmI3Vkb6VV-172" value="jQuery" style="html=1;whiteSpace=wrap;shape=isoCube2;backgroundOutline=1;isoAngle=15;shadow=0;sketch=0;fillColor=#f5f5f5;strokeColor=#666666;fontColor=#333333;" vertex="1" parent="1">
                    <mxGeometry x="390" y="830" width="40" height="50" as="geometry"/>
                </mxCell>
                <mxCell id="0Kgk2NvX1qrmI3Vkb6VV-173" value="jQuery" style="html=1;whiteSpace=wrap;shape=isoCube2;backgroundOutline=1;isoAngle=15;shadow=0;sketch=0;fillColor=#f5f5f5;strokeColor=#666666;fontColor=#333333;" vertex="1" parent="1">
                    <mxGeometry x="390" y="1080" width="40" height="50" as="geometry"/>
                </mxCell>
                <mxCell id="0Kgk2NvX1qrmI3Vkb6VV-178" style="edgeStyle=orthogonalEdgeStyle;rounded=0;orthogonalLoop=1;jettySize=auto;html=1;" edge="1" parent="1" source="0Kgk2NvX1qrmI3Vkb6VV-179" target="0Kgk2NvX1qrmI3Vkb6VV-182">
                    <mxGeometry relative="1" as="geometry"/>
                </mxCell>
                <mxCell id="0Kgk2NvX1qrmI3Vkb6VV-179" value="Browser" style="rounded=0;whiteSpace=wrap;html=1;shadow=0;sketch=0;fillColor=#f5f5f5;strokeColor=#666666;fontColor=#333333;" vertex="1" parent="1">
                    <mxGeometry x="160" y="640" width="120" height="40" as="geometry"/>
                </mxCell>
                <mxCell id="0Kgk2NvX1qrmI3Vkb6VV-180" style="edgeStyle=orthogonalEdgeStyle;rounded=0;orthogonalLoop=1;jettySize=auto;html=1;exitX=0.5;exitY=0;exitDx=0;exitDy=0;" edge="1" parent="1" source="0Kgk2NvX1qrmI3Vkb6VV-182" target="0Kgk2NvX1qrmI3Vkb6VV-179">
                    <mxGeometry relative="1" as="geometry"/>
                </mxCell>
                <mxCell id="0Kgk2NvX1qrmI3Vkb6VV-181" value="HTTP" style="edgeLabel;html=1;align=center;verticalAlign=middle;resizable=0;points=[];labelBackgroundColor=none;fontColor=#000000;" vertex="1" connectable="0" parent="0Kgk2NvX1qrmI3Vkb6VV-180">
                    <mxGeometry x="-0.2" y="1" relative="1" as="geometry">
                        <mxPoint as="offset"/>
                    </mxGeometry>
                </mxCell>
                <mxCell id="0Kgk2NvX1qrmI3Vkb6VV-182" value="Server" style="rounded=0;whiteSpace=wrap;html=1;shadow=0;sketch=0;fillColor=#f5f5f5;strokeColor=#666666;fontColor=#333333;" vertex="1" parent="1">
                    <mxGeometry x="160" y="720" width="120" height="40" as="geometry"/>
                </mxCell>
                <mxCell id="0Kgk2NvX1qrmI3Vkb6VV-183" value="HTML" style="html=1;whiteSpace=wrap;shape=isoCube2;backgroundOutline=1;isoAngle=15;shadow=0;sketch=0;fillColor=#f5f5f5;strokeColor=#666666;fontColor=#333333;" vertex="1" parent="1">
                    <mxGeometry x="290" y="630" width="40" height="50" as="geometry"/>
                </mxCell>
                <mxCell id="0Kgk2NvX1qrmI3Vkb6VV-184" value="2005" style="shape=ext;double=1;rounded=0;whiteSpace=wrap;html=1;shadow=0;sketch=0;fillColor=#f5f5f5;strokeColor=#666666;fontColor=#333333;" vertex="1" parent="1">
                    <mxGeometry x="160" y="560" width="320" height="30" as="geometry"/>
                </mxCell>
                <mxCell id="0Kgk2NvX1qrmI3Vkb6VV-185" value="PHP" style="html=1;whiteSpace=wrap;shape=isoCube2;backgroundOutline=1;isoAngle=15;shadow=0;sketch=0;fillColor=#f5f5f5;strokeColor=#666666;fontColor=#333333;" vertex="1" parent="1">
                    <mxGeometry x="290" y="715" width="40" height="50" as="geometry"/>
                </mxCell>
                <mxCell id="0Kgk2NvX1qrmI3Vkb6VV-186" value="CSS" style="html=1;whiteSpace=wrap;shape=isoCube2;backgroundOutline=1;isoAngle=15;shadow=0;sketch=0;fillColor=#f5f5f5;strokeColor=#666666;fontColor=#333333;" vertex="1" parent="1">
                    <mxGeometry x="340" y="630" width="40" height="50" as="geometry"/>
                </mxCell>
                <mxCell id="0Kgk2NvX1qrmI3Vkb6VV-187" value="JS" style="html=1;whiteSpace=wrap;shape=isoCube2;backgroundOutline=1;isoAngle=15;shadow=0;sketch=0;fillColor=#f5f5f5;strokeColor=#666666;fontColor=#333333;" vertex="1" parent="1">
                    <mxGeometry x="390" y="630" width="40" height="50" as="geometry"/>
                </mxCell>
                <mxCell id="0Kgk2NvX1qrmI3Vkb6VV-188" value="ASP" style="html=1;whiteSpace=wrap;shape=isoCube2;backgroundOutline=1;isoAngle=15;shadow=0;sketch=0;fillColor=#f5f5f5;strokeColor=#666666;fontColor=#333333;" vertex="1" parent="1">
                    <mxGeometry x="340" y="715" width="40" height="50" as="geometry"/>
                </mxCell>
                <mxCell id="0Kgk2NvX1qrmI3Vkb6VV-189" value="JSP" style="html=1;whiteSpace=wrap;shape=isoCube2;backgroundOutline=1;isoAngle=15;shadow=0;sketch=0;fillColor=#f5f5f5;strokeColor=#666666;fontColor=#333333;" vertex="1" parent="1">
                    <mxGeometry x="390" y="715" width="40" height="50" as="geometry"/>
                </mxCell>
                <mxCell id="0Kgk2NvX1qrmI3Vkb6VV-191" value="REST" style="ellipse;shape=cloud;whiteSpace=wrap;html=1;shadow=0;sketch=0;fillColor=#f5f5f5;align=center;strokeColor=#666666;fontColor=#333333;" vertex="1" parent="1">
                    <mxGeometry x="140" y="680" width="60" height="40" as="geometry"/>
                </mxCell>
                <mxCell id="0Kgk2NvX1qrmI3Vkb6VV-193" value="Ajax" style="ellipse;shape=cloud;whiteSpace=wrap;html=1;shadow=0;sketch=0;fillColor=#f5f5f5;align=center;strokeColor=#666666;fontColor=#333333;" vertex="1" parent="1">
                    <mxGeometry x="230" y="680" width="60" height="40" as="geometry"/>
                </mxCell>
                <mxCell id="0Kgk2NvX1qrmI3Vkb6VV-194" value="Ajax" style="ellipse;shape=cloud;whiteSpace=wrap;html=1;shadow=0;sketch=0;fillColor=#f5f5f5;align=center;strokeColor=#666666;fontColor=#333333;" vertex="1" parent="1">
                    <mxGeometry x="230" y="920" width="60" height="40" as="geometry"/>
                </mxCell>
                <mxCell id="0Kgk2NvX1qrmI3Vkb6VV-195" value="Ajax" style="ellipse;shape=cloud;whiteSpace=wrap;html=1;shadow=0;sketch=0;fillColor=#f5f5f5;align=center;strokeColor=#666666;fontColor=#333333;" vertex="1" parent="1">
                    <mxGeometry x="230" y="1170" width="60" height="40" as="geometry"/>
                </mxCell>
            </root>
        </mxGraphModel>
    </diagram>
</mxfile>